<svg width="180" height="68" viewBox="0 0 180 68" fill="none" xmlns="http://www.w3.org/2000/svg">
<rect width="68" height="68" rx="2" fill="#030303"/>
<path d="M42.7012 24L46.0803 18.1174L32.4213 18.1251L14.3158 49.4848H21.4305L35.6011 24H42.7012Z" fill="white"/>
<path d="M25.6949 43.6022L22.3158 49.4848L35.9748 49.4771L54.0803 18.1174H46.9656L32.795 43.6022H25.6949Z" fill="white"/>
<path d="M84.6286 32H89.902V24.532H92.608L96.5923 32H102.345L97.8175 23.6904C100.214 22.6037 101.599 20.4624 101.599 17.4475C101.599 12.9624 98.5419 10.1818 93.6413 10.1818H84.6286V32ZM89.902 20.3772V14.4326H92.5014C94.8665 14.4326 96.1342 15.4233 96.1342 17.4475C96.1342 19.4716 94.8665 20.3772 92.5014 20.3772H89.902Z" fill="#030303"/>
<path d="M109.105 32.277C111.385 32.277 112.961 31.3928 113.856 29.7202H113.984V32H118.885V20.8779C118.885 17.4155 115.806 15.4233 111.64 15.4233C107.24 15.4233 104.748 17.6392 104.332 20.6222L109.137 20.7926C109.36 19.7486 110.223 19.1094 111.598 19.1094C112.876 19.1094 113.686 19.7273 113.686 20.8246V20.8779C113.686 21.8793 112.599 22.0924 109.808 22.3374C106.495 22.6144 103.725 23.8395 103.725 27.4617C103.725 30.7003 105.973 32.277 109.105 32.277ZM110.713 28.8679C109.51 28.8679 108.657 28.2926 108.657 27.206C108.657 26.1513 109.488 25.5121 110.969 25.2884C111.939 25.1499 113.132 24.9368 113.718 24.6279V26.1833C113.718 27.7813 112.375 28.8679 110.713 28.8679Z" fill="#030303"/>
<path d="M126.683 32.277C128.963 32.277 130.539 31.3928 131.434 29.7202H131.562V32H136.463V20.8779C136.463 17.4155 133.384 15.4233 129.218 15.4233C124.819 15.4233 122.326 17.6392 121.91 20.6222L126.715 20.7926C126.939 19.7486 127.801 19.1094 129.176 19.1094C130.454 19.1094 131.264 19.7273 131.264 20.8246V20.8779C131.264 21.8793 130.177 22.0924 127.386 22.3374C124.073 22.6144 121.303 23.8395 121.303 27.4617C121.303 30.7003 123.551 32.277 126.683 32.277ZM128.292 28.8679C127.088 28.8679 126.235 28.2926 126.235 27.206C126.235 26.1513 127.066 25.5121 128.547 25.2884C129.517 25.1499 130.71 24.9368 131.296 24.6279V26.1833C131.296 27.7813 129.953 28.8679 128.292 28.8679Z" fill="#030303"/>
<path d="M151.441 16.723H156.491C156.449 12.6428 153.199 9.88354 148.128 9.88354C143.142 9.88354 139.552 12.6002 139.584 16.6591C139.574 19.9723 141.896 21.8367 145.667 22.6996L147.947 23.2323C150.344 23.7862 151.42 24.4361 151.441 25.6612C151.42 26.9929 150.174 27.9198 148.054 27.9198C145.721 27.9198 144.186 26.8331 144.069 24.7344H139.02C139.083 29.8374 142.631 32.277 148.118 32.277C153.551 32.277 156.768 29.8161 156.789 25.6719C156.768 22.1882 154.414 20.0576 150.11 19.1094L148.235 18.6833C146.253 18.2571 144.996 17.5966 145.039 16.2969C145.049 15.1037 146.072 14.2408 148.118 14.2408C150.174 14.2408 151.303 15.1676 151.441 16.723Z" fill="#030303"/>
<path d="M96.4219 45.723H101.472C101.429 41.6428 98.1797 38.8835 93.1087 38.8835C88.1229 38.8835 84.5327 41.6002 84.5646 45.6591C84.554 48.9723 86.8764 50.8367 90.6477 51.6996L92.9276 52.2323C95.3246 52.7862 96.4006 53.4361 96.4219 54.6612C96.4006 55.9929 95.1541 56.9198 93.0341 56.9198C90.701 56.9198 89.1669 55.8331 89.0497 53.7344H84C84.0639 58.8374 87.6115 61.277 93.098 61.277C98.5313 61.277 101.749 58.8161 101.77 54.6719C101.749 51.1882 99.3942 49.0576 95.0902 48.1094L93.2152 47.6833C91.2337 47.2571 89.9766 46.5966 90.0192 45.2969C90.0298 44.1037 91.0526 43.2408 93.098 43.2408C95.1541 43.2408 96.2834 44.1676 96.4219 45.723Z" fill="#030303"/>
<path d="M113.67 44.6364H110.719V40.7159H105.509V44.6364H103.347V48.4716H105.509V56.4297C105.477 59.7429 107.629 61.4049 111.305 61.2344C112.562 61.1705 113.467 60.9148 113.968 60.7656L113.18 57.005C112.956 57.0583 112.434 57.1648 112.04 57.1648C111.198 57.1648 110.719 56.8239 110.719 55.8544V48.4716H113.67V44.6364Z" fill="#030303"/>
<path d="M126.885 53.9368C126.885 55.8438 125.671 56.9091 124.126 56.9091C122.528 56.9091 121.548 55.8225 121.537 54.0433V44.6364H116.328V55.0661C116.338 58.7628 118.586 61.2131 121.953 61.2131C124.403 61.2131 126.225 59.956 126.949 57.9531H127.12V61H132.084V44.6364H126.885V53.9368Z" fill="#030303"/>
<path d="M141.377 61.2344C143.848 61.2344 145.318 59.8601 145.979 58.3473H146.139V61H151.295V39.1818H146.085V47.4382H145.979C145.361 45.9361 143.933 44.4233 141.355 44.4233C137.936 44.4233 134.835 47.0547 134.835 52.8289C134.835 58.4006 137.765 61.2344 141.377 61.2344ZM143.188 57.1754C141.259 57.1754 140.183 55.4602 140.183 52.8182C140.183 50.1868 141.249 48.4929 143.188 48.4929C145.095 48.4929 146.203 50.1442 146.203 52.8182C146.203 55.4709 145.084 57.1754 143.188 57.1754Z" fill="#030303"/>
<path d="M154.589 61H159.799V44.6364H154.589V61ZM157.2 42.7294C158.68 42.7294 159.874 41.6108 159.874 40.2365C159.874 38.8622 158.68 37.7543 157.2 37.7543C155.729 37.7543 154.526 38.8622 154.526 40.2365C154.526 41.6108 155.729 42.7294 157.2 42.7294Z" fill="#030303"/>
<path d="M170.753 61.309C175.899 61.309 179.02 57.9105 179.02 52.8715C179.02 47.8218 175.899 44.4233 170.753 44.4233C165.608 44.4233 162.486 47.8218 162.486 52.8715C162.486 57.9105 165.608 61.309 170.753 61.309ZM170.785 57.3779C168.857 57.3779 167.792 55.5455 167.792 52.8395C167.792 50.1229 168.857 48.2799 170.785 48.2799C172.65 48.2799 173.715 50.1229 173.715 52.8395C173.715 55.5455 172.65 57.3779 170.785 57.3779Z" fill="#030303"/>
</svg>
