<svg width="160" height="33" viewBox="0 0 160 33" fill="none" xmlns="http://www.w3.org/2000/svg">
<path d="M0.256747 32H7.46378V20.0174H19.3153V14.1499H7.46378V8.0348H20.6112V2.18182H0.256747V32ZM24.2401 32H31.3598V9.63636H24.2401V32ZM27.8073 7.03019C29.8311 7.03019 31.4617 5.50142 31.4617 3.62322C31.4617 1.74503 29.8311 0.230822 27.8073 0.230822C25.798 0.230822 24.1528 1.74503 24.1528 3.62322C24.1528 5.50142 25.798 7.03019 27.8073 7.03019ZM35.8915 32H43.0112V19.8572C43.0112 17.1928 44.9039 15.402 47.4519 15.402C48.2963 15.402 49.563 15.5476 50.2473 15.7805V9.59269C49.6504 9.43253 48.9078 9.33061 48.2527 9.33061C45.8066 9.33061 43.8556 10.7575 43.0403 13.7131H42.8074V9.63636H35.8915V32ZM62.4411 32.4222C68.3086 32.4222 72.1669 29.5831 72.9822 25.1861L66.445 24.9968C65.8917 26.4819 64.4357 27.2827 62.5721 27.2827C59.8349 27.2827 58.146 25.4627 58.146 22.7255V22.5362H73.055V20.7599C73.055 13.3928 68.5707 9.34517 62.2227 9.34517C55.467 9.34517 51.1282 13.9751 51.1282 20.9055C51.1282 28.0689 55.4087 32.4222 62.4411 32.4222ZM58.146 18.4013C58.2479 16.1737 60.0096 14.4847 62.3683 14.4847C64.7124 14.4847 66.4013 16.1154 66.4304 18.4013H58.146ZM96.2158 16.4648C95.8373 12.0387 92.2119 9.34517 86.1551 9.34517C80.0983 9.34517 76.24 11.9805 76.2691 16.4648C76.24 19.9009 78.4385 22.114 82.9083 22.9439L86.8103 23.6864C88.6594 24.0504 89.5038 24.6328 89.5329 25.6229C89.5038 26.744 88.2517 27.4865 86.4317 27.4865C84.4079 27.4865 83.0393 26.6129 82.7336 24.9822L75.7013 25.157C76.2108 29.5831 80.0109 32.4222 86.4026 32.4222C92.3866 32.4222 96.74 29.4375 96.7691 24.8366C96.74 21.5753 94.5851 19.6388 90.1299 18.7798L85.8202 17.9645C83.9275 17.5859 83.316 16.9162 83.3305 16.0572C83.316 14.9215 84.6409 14.2227 86.2861 14.2227C88.1643 14.2227 89.4747 15.2273 89.6785 16.6396L96.2158 16.4648ZM100.274 32H107.394V9.63636H100.274V32ZM103.841 7.03019C105.865 7.03019 107.496 5.50142 107.496 3.62322C107.496 1.74503 105.865 0.230822 103.841 0.230822C101.832 0.230822 100.187 1.74503 100.187 3.62322C100.187 5.50142 101.832 7.03019 103.841 7.03019ZM120.094 32.3203C123.472 32.3203 125.481 30.4421 126.383 28.3746H126.602V32H133.649V2.18182H126.529V13.4656H126.383C125.539 11.4126 123.588 9.34517 120.065 9.34517C115.391 9.34517 111.154 12.9414 111.154 20.8327C111.154 28.4474 115.158 32.3203 120.094 32.3203ZM122.569 26.7731C119.934 26.7731 118.463 24.429 118.463 20.8182C118.463 17.2219 119.919 14.907 122.569 14.907C125.175 14.907 126.689 17.1637 126.689 20.8182C126.689 24.4435 125.16 26.7731 122.569 26.7731ZM148.605 32.4222C154.473 32.4222 158.331 29.5831 159.146 25.1861L152.609 24.9968C152.056 26.4819 150.6 27.2827 148.736 27.2827C145.999 27.2827 144.31 25.4627 144.31 22.7255V22.5362H159.219V20.7599C159.219 13.3928 154.735 9.34517 148.387 9.34517C141.631 9.34517 137.292 13.9751 137.292 20.9055C137.292 28.0689 141.573 32.4222 148.605 32.4222ZM144.31 18.4013C144.412 16.1737 146.174 14.4847 148.532 14.4847C150.876 14.4847 152.565 16.1154 152.594 18.4013H144.31Z" fill="white"/>
</svg>
