<svg width="109" height="79" viewBox="0 0 109 79" fill="none" xmlns="http://www.w3.org/2000/svg">
<path d="M56.9145 57.6553L55.6258 59.1914L56.8833 65.3145C56.9249 65.429 56.9526 65.5096 56.9664 65.5562C56.9803 65.6027 56.982 65.6546 56.9716 65.7119C56.9613 65.7692 56.9318 65.8229 56.8833 65.873L55.2621 67.8818C55.1928 67.9606 55.1045 68 54.9971 68C54.8897 68 54.7979 67.9606 54.7217 67.8818L53.1109 65.873C53.0416 65.7799 53.0087 65.703 53.0121 65.6421C53.0156 65.5812 53.0485 65.472 53.1109 65.3145L54.3683 59.1807L53.0901 57.6553C53 57.5693 52.9775 57.4386 53.0225 57.2632C53.0676 57.0877 53.1663 57 53.3187 57H56.6962C56.8487 57 56.9439 57.0877 56.982 57.2632C57.0201 57.4386 56.9976 57.5693 56.9145 57.6553Z" fill="#222222"/>
<path fill-rule="evenodd" clip-rule="evenodd" d="M62.3963 45.6563C62.3689 45.9161 62.2978 46.5178 62.2322 46.846C62.1501 47.2562 60.0989 52.9998 55.463 52.9998C50.8271 52.9998 48.4067 47.0921 48.4067 46.6409V45.6563C48.1195 45.5469 47.5041 45.2378 47.34 44.8768C47.1349 44.4255 46.7656 43.605 46.7246 42.4563L46.7226 42.4007C46.6823 41.2746 46.6465 40.274 46.8887 39.7896C47.0856 39.3958 47.2716 39.1059 47.34 39.0102C47.2853 37.8068 47.2087 35.2687 47.34 34.7435C47.5041 34.0871 47.8733 29 55.1348 29C60.944 29 60.9194 31.8718 60.9194 31.8718C60.9194 31.8718 62.7081 32.7497 62.9706 33.6359C63.2988 34.7435 63.4219 38.2717 63.4219 38.6409C63.4219 38.9363 63.4766 39.0649 63.5039 39.0922C63.6817 39.1879 64.0373 39.4778 64.0373 39.8717C64.0373 40.364 64.0373 43.9332 63.627 44.5486C63.2168 45.1639 62.8065 45.6563 62.3963 45.6563ZM49.1451 36.5897V40.8973C49.1451 40.6102 48.5297 39.6255 48.2426 39.6255C47.9554 39.6255 47.7503 40.2409 47.6682 40.8973C47.5861 41.5537 48.1195 44.0563 48.2426 44.4255C48.3656 44.7947 48.5297 44.5896 48.899 44.6716C49.1943 44.7373 49.3776 45.1366 49.4323 45.3281C49.487 45.6426 49.5964 46.3455 49.5964 46.6409C49.5964 47.0101 51.7707 51.9331 55.463 51.9331C59.1553 51.9331 61.0014 46.928 61.0835 46.6409C61.1655 46.3537 61.2065 45.7793 61.2476 45.3281C61.2886 44.8768 61.904 44.7537 62.3963 44.4255C62.8886 44.0973 62.9296 41.3896 62.9706 40.8973C63.0116 40.405 62.8065 39.5845 62.3963 39.6255C62.0681 39.6584 61.8219 40.4871 61.7399 40.8973H61.4937C61.5347 39.8854 61.5922 37.6071 61.4937 36.5897C61.3706 35.3179 59.8937 34.0871 58.6219 34.0871C57.3502 34.0871 56.4886 35.3179 55.1348 35.3179C53.781 35.3179 53.6579 34.2102 51.7707 34.0871C50.261 33.9887 49.3913 35.7145 49.1451 36.5897Z" fill="#222222"/>
<path d="M62.5398 53.9202C62.5398 53.9202 72.8578 57.4914 74.0717 58.0016C75.2856 58.5118 77.511 70.7562 78.118 74.3274C78.118 77.1028 74.9484 77.1844 73.3636 76.8783H35.0252C34.2159 76.9464 32.5569 76.5314 32.3951 74.3274C32.1928 71.5724 35.3286 61.2668 36.846 58.0016C40.3865 57.4914 45.1408 55.2466 47.7709 53.9202C48.0927 56.0622 48.3351 57.4684 48.574 58.5135M62.5398 53.9202C62.5398 53.9202 62.5124 56.2186 62.1567 58.5135L62.5398 53.9202Z" stroke="#222222" stroke-width="3"/>
<path d="M9 48.9647L10.6767 53.0244L10.8526 53.4501L11.3119 53.4858L15.691 53.826L12.3482 56.6752L11.9976 56.974L12.1056 57.4218L13.1353 61.6917L9.39252 59.3929L9 59.1518L8.60748 59.3929L4.86473 61.6917L5.89444 57.4218L6.00243 56.974L5.65185 56.6752L2.309 53.826L6.68813 53.4858L7.1474 53.4501L7.32325 53.0244L9 48.9647Z" stroke="#222222" stroke-opacity="0.7" stroke-width="1.5"/>
<path d="M27 19.9647L28.6767 24.0244L28.8526 24.4501L29.3119 24.4858L33.691 24.826L30.3482 27.6752L29.9976 27.974L30.1056 28.4218L31.1353 32.6917L27.3925 30.3929L27 30.1518L26.6075 30.3929L22.8647 32.6917L23.8944 28.4218L24.0024 27.974L23.6518 27.6752L20.309 24.826L24.6881 24.4858L25.1474 24.4501L25.3233 24.0244L27 19.9647Z" stroke="#222222" stroke-opacity="0.7" stroke-width="1.5"/>
<path d="M54 1.96466L55.6767 6.02435L55.8526 6.45012L56.3119 6.48579L60.691 6.82596L57.3482 9.67516L56.9976 9.97397L57.1056 10.4218L58.1353 14.6917L54.3925 12.3929L54 12.1518L53.6075 12.3929L49.8647 14.6917L50.8944 10.4218L51.0024 9.97397L50.6518 9.67516L47.309 6.82596L51.6881 6.48579L52.1474 6.45012L52.3233 6.02435L54 1.96466Z" stroke="#222222" stroke-opacity="0.7" stroke-width="1.5"/>
<path d="M90 19.9647L91.6767 24.0244L91.8526 24.4501L92.3119 24.4858L96.691 24.826L93.3482 27.6752L92.9976 27.974L93.1056 28.4218L94.1353 32.6917L90.3925 30.3929L90 30.1518L89.6075 30.3929L85.8647 32.6917L86.8944 28.4218L87.0024 27.974L86.6518 27.6752L83.309 24.826L87.6881 24.4858L88.1474 24.4501L88.3233 24.0244L90 19.9647Z" stroke="#222222" stroke-opacity="0.7" stroke-width="1.5"/>
<path d="M100 48.9647L101.677 53.0244L101.853 53.4501L102.312 53.4858L106.691 53.826L103.348 56.6752L102.998 56.974L103.106 57.4218L104.135 61.6917L100.393 59.3929L100 59.1518L99.6075 59.3929L95.8647 61.6917L96.8944 57.4218L97.0024 56.974L96.6518 56.6752L93.309 53.826L97.6881 53.4858L98.1474 53.4501L98.3233 53.0244L100 48.9647Z" stroke="#222222" stroke-opacity="0.7" stroke-width="1.5"/>
</svg>
