<svg width="110" height="85" viewBox="0 0 110 85" fill="none" xmlns="http://www.w3.org/2000/svg">
<path d="M45.1232 7.2905V2.65109H41.6933C41.537 3.0933 41.2294 3.46601 40.8248 3.70333C40.4202 3.94065 39.9448 4.02732 39.4825 3.948C39.0202 3.86869 38.6009 3.6285 38.2986 3.2699C37.9962 2.91129 37.8304 2.45736 37.8304 1.98832C37.8304 1.51928 37.9962 1.06535 38.2986 0.706744C38.6009 0.348139 39.0202 0.107954 39.4825 0.0286387C39.9448 -0.050676 40.4202 0.0359868 40.8248 0.27331C41.2294 0.510634 41.537 0.883337 41.6933 1.32555H45.786C45.9617 1.32555 46.1303 1.39538 46.2546 1.51967C46.3789 1.64396 46.4487 1.81254 46.4487 1.98832V7.2905C46.4487 7.46627 46.3789 7.63485 46.2546 7.75915C46.1303 7.88344 45.9617 7.95327 45.786 7.95327C45.6102 7.95327 45.4416 7.88344 45.3173 7.75915C45.193 7.63485 45.1232 7.46627 45.1232 7.2905Z" fill="#222222"/>
<path d="M53.9356 7.95327C53.7598 7.95327 53.5912 7.88344 53.4669 7.75915C53.3426 7.63485 53.2728 7.46627 53.2728 7.2905V1.98832C53.2728 1.81254 53.3426 1.64396 53.4669 1.51967C53.5912 1.39538 53.7598 1.32555 53.9356 1.32555H58.0282C58.1845 0.883337 58.4922 0.510634 58.8967 0.27331C59.3013 0.0359868 59.7767 -0.050676 60.239 0.0286387C60.7013 0.107954 61.1207 0.348139 61.423 0.706744C61.7253 1.06535 61.8911 1.51928 61.8911 1.98832C61.8911 2.45736 61.7253 2.91129 61.423 3.2699C61.1207 3.6285 60.7013 3.86869 60.239 3.948C59.7767 4.02732 59.3013 3.94065 58.8967 3.70333C58.4922 3.46601 58.1845 3.0933 58.0282 2.65109H54.5984V7.2905C54.5984 7.46627 54.5285 7.63485 54.4042 7.75915C54.2799 7.88344 54.1114 7.95327 53.9356 7.95327Z" fill="#222222"/>
<path d="M30.5555 3.8606C31.0234 3.86209 31.4758 4.02856 31.8331 4.3307C32.1903 4.63285 32.4296 5.05132 32.5088 5.51248C32.588 5.97364 32.502 6.44795 32.2659 6.85196C32.0299 7.25596 31.6589 7.56378 31.2183 7.72124V13.1394H36.1348C36.3106 13.1394 36.4792 13.2092 36.6035 13.3335C36.7278 13.4578 36.7976 13.6264 36.7976 13.8022C36.7976 13.978 36.7278 14.1465 36.6035 14.2708C36.4792 14.3951 36.3106 14.4649 36.1348 14.4649H30.5555C30.3797 14.4649 30.2111 14.3951 30.0868 14.2708C29.9626 14.1465 29.8927 13.978 29.8927 13.8022V7.72124C29.4521 7.56378 29.0811 7.25596 28.8451 6.85196C28.609 6.44795 28.523 5.97364 28.6022 5.51248C28.6814 5.05132 28.9207 4.63285 29.2779 4.3307C29.6352 4.02856 30.0876 3.86209 30.5555 3.8606Z" fill="#222222"/>
<path d="M49.7946 14.3992C52.3391 14.3992 54.3616 16.4217 54.3616 18.9661C54.3616 21.5105 52.3391 23.533 49.7946 23.533C47.2502 23.533 45.2277 21.5105 45.2277 18.9661C45.2277 16.4217 47.2502 14.3992 49.7946 14.3992ZM49.7946 22.2282C51.6214 22.2282 53.0567 20.7929 53.0567 18.9661C53.0567 17.1393 51.6214 15.704 49.7946 15.704C47.9679 15.704 46.5326 17.1393 46.5326 18.9661C46.5326 20.7929 47.9679 22.2282 49.7946 22.2282Z" fill="#222222"/>
<path fill-rule="evenodd" clip-rule="evenodd" d="M42.0311 16.2265L40.2043 16.8137C39.7477 16.9441 39.4214 17.4008 39.4214 17.8575V20.0758C39.4214 20.5325 39.7477 20.9239 40.1391 21.0544L42.0311 21.6416L42.4226 22.6202L41.5092 24.3165C41.3135 24.7079 41.3787 25.2299 41.7049 25.5561L43.2707 27.1219C43.5969 27.4481 44.1189 27.5133 44.5103 27.3176L46.2066 26.4042L46.5328 25.0994L46.3697 25.0015L46.2066 24.9037L44.0536 26.078L42.7488 24.7732L43.9231 22.6202L43.7274 22.294L43.1402 20.9239L43.075 20.5977L40.7263 19.88V18.0533L43.075 17.3356L43.1402 17.0094C43.2707 16.5527 43.4664 16.096 43.7274 15.6393L43.9231 15.3131L42.7488 13.1601L44.0536 11.8553L46.2066 13.0296L46.5328 12.8339C46.9895 12.5729 47.4462 12.3772 47.9029 12.2467L48.2291 12.1163L48.9467 9.83279H50.7735L51.4912 12.1163L51.8174 12.2467C52.3393 12.3772 52.796 12.5729 53.2527 12.8339L53.5789 13.0296L55.6667 11.8553L56.9715 13.1601L55.8624 15.3131L56.0581 15.6393C56.3191 16.096 56.5148 16.5527 56.6453 17.0746L56.7758 17.4008L58.994 18.0533V19.88L56.6453 20.5977L56.58 20.9239L57.6892 21.6416L59.5159 21.0544C59.9726 20.9239 60.2988 20.5325 60.2988 20.0758V17.8575C60.2988 17.4008 59.9726 17.0094 59.5812 16.8789L57.7544 16.2917C57.6892 16.1286 57.6239 15.9492 57.5587 15.7698C57.4934 15.5904 57.4282 15.411 57.3629 15.2479L58.2111 13.6168C58.4068 13.2254 58.3416 12.7034 58.0154 12.3772L56.4496 10.8114C56.1234 10.4852 55.6014 10.42 55.21 10.6157L53.5137 11.5291C53.1875 11.3334 52.8613 11.2029 52.4698 11.1376L51.8826 9.31086C51.8174 8.85416 51.4259 8.52795 50.9692 8.52795H48.751C48.2943 8.52795 47.9029 8.85416 47.7724 9.24561L47.1852 11.0724L46.2066 11.4638L44.5103 10.5505C44.1189 10.3547 43.5969 10.42 43.2707 10.7462L41.7049 12.312C41.3787 12.6382 41.3135 13.1601 41.5092 13.5516L42.4226 15.2479L42.0311 16.2265Z" fill="#222222"/>
<path fill-rule="evenodd" clip-rule="evenodd" d="M66.7355 45.2292C66.7025 45.5423 66.6168 46.2674 66.5377 46.6629C66.4388 47.1573 63.967 54.0785 58.3805 54.0785C52.7941 54.0785 49.8773 46.9595 49.8773 46.4157V45.2292C49.5312 45.0974 48.7897 44.7249 48.5919 44.2899C48.3447 43.7461 47.8998 42.7573 47.8504 41.3731L47.848 41.3061C47.7994 39.949 47.7563 38.7433 48.0481 38.1596C48.2854 37.685 48.5095 37.3357 48.5919 37.2203C48.526 35.7702 48.4337 32.7116 48.5919 32.0788C48.7897 31.2878 49.2346 25.1576 57.985 25.1576C64.9854 25.1576 64.9557 28.6182 64.9557 28.6182C64.9557 28.6182 67.1112 29.6762 67.4276 30.744C67.8231 32.0788 67.9714 36.3305 67.9714 36.7754C67.9714 37.1313 68.0373 37.2862 68.0703 37.3192C68.2845 37.4346 68.713 37.7839 68.713 38.2585C68.713 38.8518 68.713 43.1528 68.2186 43.8944C67.7242 44.6359 67.2298 45.2292 66.7355 45.2292ZM50.7672 34.3035V39.4945C50.7672 39.1484 50.0256 37.9619 49.6795 37.9619C49.3335 37.9619 49.0863 38.7035 48.9874 39.4945C48.8886 40.2855 49.5312 43.3011 49.6795 43.7461C49.8279 44.191 50.0256 43.9438 50.4705 44.0427C50.8265 44.1218 51.0473 44.603 51.1132 44.8337C51.1792 45.2127 51.311 46.0597 51.311 46.4157C51.311 46.8606 53.9312 52.7931 58.3805 52.7931C62.8299 52.7931 65.0546 46.7618 65.1535 46.4157C65.2523 46.0696 65.3018 45.3775 65.3512 44.8337C65.4007 44.2899 66.1422 44.1416 66.7355 43.7461C67.3287 43.3506 67.3782 40.0877 67.4276 39.4945C67.477 38.9012 67.2298 37.9125 66.7355 37.9619C66.34 38.0014 66.0433 39.0001 65.9445 39.4945H65.6478C65.6973 38.275 65.7665 35.5296 65.6478 34.3035C65.4995 32.771 63.7198 31.2878 62.1872 31.2878C60.6547 31.2878 59.6165 32.771 57.985 32.771C56.3536 32.771 56.2053 31.4362 53.9312 31.2878C52.1119 31.1692 51.0638 33.2489 50.7672 34.3035Z" fill="#222222"/>
<path d="M60.8987 61.3216L58.8919 63.6412L60.8501 72.8876C60.9149 73.0606 60.958 73.1823 60.9796 73.2526C61.0012 73.3229 61.0039 73.4013 60.9877 73.4878C60.9715 73.5743 60.9257 73.6554 60.8501 73.7311L58.3254 76.7646C58.2175 76.8835 58.08 76.943 57.9127 76.943C57.7455 76.943 57.6026 76.8835 57.4839 76.7646L54.9754 73.7311C54.8675 73.5905 54.8162 73.4743 54.8216 73.3824C54.827 73.2904 54.8783 73.1255 54.9754 72.8876L56.9336 63.625L54.943 61.3216C54.8027 61.1918 54.7677 60.9944 54.8378 60.7295C54.9079 60.4645 55.0617 60.332 55.299 60.332H60.5588C60.7962 60.332 60.9445 60.4645 61.0039 60.7295C61.0632 60.9944 61.0282 61.1918 60.8987 61.3216Z" fill="#222222"/>
<path d="M66.9084 55.1876C66.9084 55.1876 79.3421 59.4912 80.8049 60.106C82.2677 60.7208 84.9495 75.4758 85.6809 79.7794C85.6809 83.1239 81.8614 83.2222 79.9516 82.8533H33.7519C32.7767 82.9353 30.7776 82.4353 30.5825 79.7794C30.3387 76.4595 34.1176 64.0407 35.9461 60.106C40.2126 59.4912 45.9418 56.7861 49.1112 55.1876C49.4989 57.7689 49.7911 59.4634 50.079 60.7228M66.9084 55.1876C66.9084 55.1876 66.8754 57.9574 66.4467 60.7228L66.9084 55.1876Z" stroke="#222222" stroke-width="3"/>
<path d="M92.8868 31.1567V26.9154H96.0224C96.1653 27.3197 96.4465 27.6604 96.8164 27.8774C97.1862 28.0943 97.6209 28.1736 98.0435 28.101C98.4661 28.0285 98.8495 27.809 99.1259 27.4811C99.4022 27.1533 99.5538 26.7383 99.5538 26.3095C99.5538 25.8807 99.4022 25.4658 99.1259 25.1379C98.8495 24.8101 98.4661 24.5905 98.0435 24.518C97.6209 24.4455 97.1862 24.5247 96.8164 24.7417C96.4465 24.9586 96.1653 25.2994 96.0224 25.7036H92.2809C92.1203 25.7036 91.9661 25.7675 91.8525 25.8811C91.7389 25.9947 91.675 26.1488 91.675 26.3095V31.1567C91.675 31.3174 91.7389 31.4715 91.8525 31.5851C91.9661 31.6988 92.1203 31.7626 92.2809 31.7626C92.4416 31.7626 92.5958 31.6988 92.7094 31.5851C92.823 31.4715 92.8868 31.3174 92.8868 31.1567Z" fill="#222222"/>
<path d="M84.83 31.7626C84.9907 31.7626 85.1448 31.6988 85.2584 31.5851C85.3721 31.4715 85.4359 31.3174 85.4359 31.1567V26.3095C85.4359 26.1488 85.3721 25.9947 85.2584 25.8811C85.1448 25.7675 84.9907 25.7036 84.83 25.7036H81.0886C80.9456 25.2994 80.6644 24.9586 80.2945 24.7417C79.9247 24.5247 79.4901 24.4455 79.0675 24.518C78.6448 24.5905 78.2615 24.8101 77.9851 25.1379C77.7087 25.4658 77.5571 25.8807 77.5571 26.3095C77.5571 26.7383 77.7087 27.1533 77.9851 27.4811C78.2615 27.809 78.6448 28.0285 79.0675 28.101C79.4901 28.1736 79.9247 28.0943 80.2945 27.8774C80.6644 27.6604 80.9456 27.3197 81.0886 26.9154H84.2241V31.1567C84.2241 31.3174 84.2879 31.4715 84.4016 31.5851C84.5152 31.6988 84.6693 31.7626 84.83 31.7626Z" fill="#222222"/>
<path d="M106.205 28.0212C105.777 28.0226 105.363 28.1748 105.037 28.451C104.71 28.7272 104.491 29.1098 104.419 29.5314C104.346 29.953 104.425 30.3866 104.641 30.7559C104.857 31.1252 105.196 31.4066 105.599 31.5506V36.5038H101.104C100.943 36.5038 100.789 36.5677 100.676 36.6813C100.562 36.7949 100.498 36.949 100.498 37.1097C100.498 37.2704 100.562 37.4245 100.676 37.5382C100.789 37.6518 100.943 37.7156 101.104 37.7156H106.205C106.365 37.7156 106.519 37.6518 106.633 37.5382C106.747 37.4245 106.81 37.2704 106.81 37.1097V31.5506C107.213 31.4066 107.552 31.1252 107.768 30.7559C107.984 30.3866 108.063 29.953 107.99 29.5314C107.918 29.1098 107.699 28.7272 107.372 28.451C107.046 28.1748 106.632 28.0226 106.205 28.0212Z" fill="#222222"/>
<path d="M98.8974 48.3143C98.7367 48.3143 98.5826 48.3782 98.469 48.4918C98.3553 48.6054 98.2915 48.7595 98.2915 48.9202V56.191C98.2915 56.3517 98.3553 56.5058 98.469 56.6195C98.5826 56.7331 98.7367 56.7969 98.8974 56.7969H102.639C102.782 57.2012 103.063 57.5419 103.433 57.7589C103.803 57.9758 104.237 58.055 104.66 57.9825C105.083 57.91 105.466 57.6905 105.742 57.3626C106.019 57.0348 106.17 56.6198 106.17 56.191C106.17 55.7622 106.019 55.3472 105.742 55.0194C105.466 54.6916 105.083 54.472 104.66 54.3995C104.237 54.327 103.803 54.4062 103.433 54.6232C103.063 54.8401 102.782 55.1809 102.639 55.5851H99.5033V48.9202C99.5033 48.7595 99.4395 48.6054 99.3258 48.4918C99.2122 48.3782 99.0581 48.3143 98.8974 48.3143Z" fill="#222222"/>
<path d="M105.977 50.1795C105.977 50.5128 106.068 50.8398 106.241 51.1248C106.414 51.4097 106.662 51.6416 106.958 51.7951C107.254 51.9486 107.586 52.0177 107.919 51.995C108.251 51.9723 108.571 51.8586 108.843 51.6663C109.116 51.474 109.33 51.2106 109.463 50.9047C109.595 50.5989 109.641 50.2625 109.595 49.9324C109.55 49.6022 109.414 49.2909 109.203 49.0326C108.993 48.7743 108.715 48.5789 108.401 48.4678V42.3028C108.401 42.1421 108.337 41.988 108.223 41.8744C108.11 41.7607 107.956 41.6969 107.795 41.6969H102.948C102.867 41.6968 102.787 41.7129 102.713 41.7441C102.638 41.7753 102.571 41.8211 102.514 41.8787L101.178 43.2389H100.221C100.06 43.2389 99.9063 43.3027 99.7927 43.4164C99.6791 43.53 99.6152 43.6841 99.6152 43.8448C99.6152 44.0055 99.6791 44.1596 99.7927 44.2732C99.9063 44.3869 100.06 44.4507 100.221 44.4507H101.433C101.514 44.4508 101.593 44.4347 101.668 44.4035C101.742 44.3723 101.81 44.3266 101.866 44.2689L103.202 42.9087H107.189V48.4678C106.835 48.593 106.528 48.8248 106.311 49.1313C106.094 49.4378 105.978 49.804 105.977 50.1795Z" fill="#222222"/>
<path d="M88.6152 37.6555C86.2891 37.6555 84.4402 39.5045 84.4402 41.8306C84.4402 44.1566 86.2891 46.0056 88.6152 46.0056C90.9413 46.0056 92.7903 44.1566 92.7903 41.8306C92.7903 39.5045 90.9413 37.6555 88.6152 37.6555ZM88.6152 44.8127C86.9452 44.8127 85.6331 43.5006 85.6331 41.8306C85.6331 40.1605 86.9452 38.8484 88.6152 38.8484C90.2852 38.8484 91.5974 40.1605 91.5974 41.8306C91.5974 43.5006 90.2852 44.8127 88.6152 44.8127Z" fill="#222222"/>
<path d="M97.3826 39.8628L95.7126 39.326L95.3547 38.4314L96.1897 36.8806C96.3687 36.5228 96.309 36.0456 96.0108 35.7474L94.5794 34.316C94.2812 34.0177 93.804 33.9581 93.4461 34.137L91.8954 34.972L91.0008 34.6142L90.464 32.9442C90.3447 32.5863 89.9868 32.2881 89.5693 32.2881H87.5415C87.124 32.2881 86.7661 32.5863 86.7064 33.0038L86.1697 34.6738C85.8118 34.7335 85.5136 34.8528 85.2154 35.0317L83.6646 34.1967C83.3068 34.0177 82.8296 34.0774 82.5314 34.3756L81.1 35.807C80.8018 36.1053 80.7421 36.5824 80.921 36.9403L81.6964 38.4314C81.5771 38.7296 81.4578 39.0874 81.3385 39.3856L79.6685 39.9224C79.3107 40.0417 79.0125 40.3996 79.0125 40.8171V42.845C79.0125 43.2625 79.3107 43.6203 79.7282 43.7396L81.3982 44.2764L81.756 45.1711L80.921 46.7218C80.7421 47.0796 80.8018 47.5568 81.1 47.855L82.5314 49.2864C82.8296 49.5847 83.3068 49.6443 83.6646 49.4654L85.2154 48.6304L86.11 48.9882L86.6468 50.7179C86.7661 51.0758 87.124 51.374 87.5415 51.374H89.5693C89.9868 51.374 90.3447 51.0758 90.464 50.7179L91.0008 48.9882L91.8954 48.6304L93.4461 49.4654C93.804 49.6443 94.2812 49.5847 94.5794 49.2864L96.0108 47.855C96.309 47.5568 96.3687 47.0796 96.1897 46.7218L95.3547 45.1711L95.7126 44.2764L97.4423 43.7396C97.8001 43.6203 98.0983 43.2625 98.0983 42.845V40.8171C98.0983 40.3996 97.8001 39.9821 97.3826 39.8628ZM96.9055 42.666L94.7583 43.3221L94.6987 43.6203L94.1619 44.8728L93.9829 45.1711L95.0565 47.1393L93.8637 48.3322L91.8954 47.2586L91.5972 47.4375C91.1797 47.6761 90.7622 47.855 90.3447 47.9743L90.0465 48.0339L89.3904 50.1811H87.7204L87.0643 48.0339L86.7661 47.9743L85.5136 47.4375L85.2154 47.2586L83.2471 48.3322L82.0543 47.1393L83.1278 45.1711L82.9489 44.8728C82.7103 44.4553 82.5314 44.0378 82.4121 43.6203L82.3525 43.3221L80.2053 42.666V40.996L82.2332 40.3996L82.3525 40.1014C82.4718 39.6242 82.6507 39.2067 82.8893 38.7892L83.0682 38.491L82.0543 36.5228L83.2471 35.3299L85.1557 36.4035L85.4539 36.2245C85.8714 35.986 86.2889 35.807 86.7661 35.6878L87.0643 35.5685L87.7204 33.481H89.3904L90.0465 35.5685L90.3447 35.6878C90.7622 35.807 91.1797 35.986 91.5972 36.2245L91.8954 36.4035L93.8637 35.3299L95.0565 36.5228L93.9829 38.491L94.1619 38.7892C94.4004 39.2067 94.5794 39.6242 94.6987 40.0417L94.7583 40.3399L96.9055 40.996V42.666Z" fill="#222222"/>
<path d="M18.0636 38.4928V33.9124H14.6774C14.523 34.349 14.2193 34.717 13.8199 34.9513C13.4205 35.1856 12.9511 35.2711 12.4947 35.1928C12.0383 35.1145 11.6243 34.8774 11.3258 34.5234C11.0273 34.1693 10.8636 33.7212 10.8636 33.2581C10.8636 32.795 11.0273 32.3468 11.3258 31.9928C11.6243 31.6388 12.0383 31.4016 12.4947 31.3233C12.9511 31.245 13.4205 31.3306 13.8199 31.5649C14.2193 31.7992 14.523 32.1671 14.6774 32.6037H18.718C18.8915 32.6037 19.0579 32.6727 19.1807 32.7954C19.3034 32.9181 19.3723 33.0845 19.3723 33.2581V38.4928C19.3723 38.6664 19.3034 38.8328 19.1807 38.9555C19.0579 39.0782 18.8915 39.1472 18.718 39.1472C18.5444 39.1472 18.378 39.0782 18.2553 38.9555C18.1326 38.8328 18.0636 38.6664 18.0636 38.4928Z" fill="#222222"/>
<path d="M26.7638 39.1472C26.5903 39.1472 26.4238 39.0782 26.3011 38.9555C26.1784 38.8328 26.1095 38.6664 26.1095 38.4928V33.2581C26.1095 33.0845 26.1784 32.9181 26.3011 32.7954C26.4238 32.6727 26.5903 32.6037 26.7638 32.6037H30.8044C30.9587 32.1671 31.2625 31.7992 31.6619 31.5649C32.0613 31.3306 32.5307 31.245 32.9871 31.3233C33.4435 31.4016 33.8575 31.6388 34.156 31.9928C34.4545 32.3468 34.6182 32.795 34.6182 33.2581C34.6182 33.7212 34.4545 34.1693 34.156 34.5234C33.8575 34.8774 33.4435 35.1145 32.9871 35.1928C32.5307 35.2711 32.0613 35.1856 31.6619 34.9513C31.2625 34.717 30.9587 34.349 30.8044 33.9124H27.4181V38.4928C27.4181 38.6664 27.3492 38.8328 27.2265 38.9555C27.1038 39.0782 26.9373 39.1472 26.7638 39.1472Z" fill="#222222"/>
<path d="M3.68078 35.1066C4.14273 35.108 4.58937 35.2724 4.9421 35.5707C5.29483 35.869 5.53106 36.2821 5.60922 36.7374C5.68739 37.1927 5.60248 37.661 5.36943 38.0599C5.13638 38.4588 4.77013 38.7627 4.33512 38.9181V44.2674H9.18916C9.3627 44.2674 9.52914 44.3363 9.65185 44.459C9.77457 44.5817 9.84351 44.7482 9.84351 44.9217C9.84351 45.0953 9.77457 45.2617 9.65185 45.3844C9.52914 45.5071 9.3627 45.5761 9.18916 45.5761H3.68078C3.50723 45.5761 3.3408 45.5071 3.21808 45.3844C3.09537 45.2617 3.02643 45.0953 3.02643 44.9217V38.9181C2.59142 38.7627 2.22517 38.4588 1.99212 38.0599C1.75908 37.661 1.67416 37.1927 1.75233 36.7374C1.83049 36.2821 2.06672 35.869 2.41945 35.5707C2.77218 35.2724 3.21882 35.108 3.68078 35.1066Z" fill="#222222"/>
<path d="M11.572 57.0222C11.7455 57.0222 11.912 57.0912 12.0347 57.2139C12.1574 57.3366 12.2263 57.503 12.2263 57.6766V65.5287C12.2263 65.7022 12.1574 65.8687 12.0347 65.9914C11.912 66.1141 11.7455 66.183 11.572 66.183H7.5314C7.37705 66.6196 7.07332 66.9876 6.6739 67.2219C6.27448 67.4562 5.80509 67.5418 5.34868 67.4634C4.89228 67.3851 4.47826 67.148 4.17978 66.794C3.88131 66.4399 3.71761 65.9918 3.71761 65.5287C3.71761 65.0656 3.88131 64.6175 4.17978 64.2634C4.47826 63.9094 4.89228 63.6722 5.34868 63.5939C5.80509 63.5156 6.27448 63.6012 6.6739 63.8355C7.07332 64.0698 7.37705 64.4378 7.5314 64.8743H10.9176V57.6766C10.9176 57.503 10.9866 57.3366 11.1093 57.2139C11.232 57.0912 11.3984 57.0222 11.572 57.0222Z" fill="#222222"/>
<path d="M3.92602 59.0365C3.92643 59.3965 3.82785 59.7497 3.64105 60.0574C3.45426 60.3651 3.18644 60.6156 2.86689 60.7813C2.54734 60.9471 2.18837 61.0218 1.82922 60.9973C1.47008 60.9727 1.12459 60.8499 0.830551 60.6422C0.536509 60.4346 0.305229 60.1501 0.162009 59.8198C0.0187893 59.4895 -0.0308571 59.1262 0.0184975 58.7697C0.0678511 58.4131 0.214307 58.0769 0.441847 57.798C0.669388 57.519 0.969252 57.308 1.30865 57.188V50.5301C1.30865 50.3565 1.37759 50.1901 1.5003 50.0674C1.62301 49.9447 1.78945 49.8757 1.96299 49.8757H7.19774C7.28487 49.8757 7.37113 49.893 7.45147 49.9267C7.53181 49.9604 7.60461 50.0098 7.6656 50.072L9.10842 51.541H10.1423C10.3158 51.541 10.4823 51.61 10.605 51.7327C10.7277 51.8554 10.7966 52.0218 10.7966 52.1954C10.7966 52.3689 10.7277 52.5354 10.605 52.6581C10.4823 52.7808 10.3158 52.8497 10.1423 52.8497H8.8336C8.74647 52.8498 8.66021 52.8325 8.57987 52.7988C8.49953 52.7651 8.42673 52.7156 8.36574 52.6534L6.92292 51.1844H2.61733V57.188C2.9997 57.3232 3.33081 57.5735 3.56515 57.9045C3.79949 58.2355 3.92556 58.631 3.92602 59.0365Z" fill="#222222"/>
<path d="M22.6762 45.5112C25.1883 45.5112 27.1851 47.508 27.1851 50.0201C27.1851 52.5322 25.1883 54.5289 22.6762 54.5289C20.1641 54.5289 18.1674 52.5322 18.1674 50.0201C18.1674 47.508 20.1641 45.5112 22.6762 45.5112ZM22.6762 53.2407C24.4797 53.2407 25.8968 51.8236 25.8968 50.0201C25.8968 48.2165 24.4797 46.7995 22.6762 46.7995C20.8727 46.7995 19.4556 48.2165 19.4556 50.0201C19.4556 51.8236 20.8727 53.2407 22.6762 53.2407Z" fill="#222222"/>
<path d="M13.2079 47.8949L15.0115 47.3152L15.3979 46.3491L14.4962 44.6743C14.3029 44.2879 14.3673 43.7726 14.6894 43.4505L16.2353 41.9046C16.5574 41.5826 17.0727 41.5181 17.4591 41.7114L19.1338 42.6131L20.1 42.2267L20.6797 40.4231C20.8086 40.0367 21.195 39.7146 21.6459 39.7146H23.8359C24.2868 39.7146 24.6733 40.0367 24.7377 40.4875L25.3174 42.2911C25.7039 42.3555 26.0259 42.4843 26.348 42.6776L28.0227 41.7758C28.4092 41.5826 28.9245 41.647 29.2466 41.969L30.7924 43.5149C31.1145 43.837 31.1789 44.3523 30.9857 44.7387L30.1483 46.3491C30.2772 46.6711 30.406 47.0576 30.5348 47.3796L32.3383 47.9594C32.7248 48.0882 33.0469 48.4747 33.0469 48.9255V51.1156C33.0469 51.5664 32.7248 51.9529 32.2739 52.0817L30.4704 52.6614L30.0839 53.6276L30.9857 55.3023C31.1789 55.6888 31.1145 56.2041 30.7924 56.5262L29.2466 58.0721C28.9245 58.3941 28.4092 58.4585 28.0227 58.2653L26.348 57.3635L25.3818 57.75L24.8021 59.618C24.6733 60.0044 24.2868 60.3265 23.8359 60.3265H21.6459C21.195 60.3265 20.8086 60.0044 20.6797 59.618L20.1 57.75L19.1338 57.3635L17.4591 58.2653C17.0727 58.4585 16.5574 58.3941 16.2353 58.0721L14.6894 56.5262C14.3673 56.2041 14.3029 55.6888 14.4962 55.3023L15.3979 53.6276L15.0115 52.6614L13.1435 52.0817C12.757 51.9529 12.435 51.5664 12.435 51.1156V48.9255C12.435 48.4747 12.757 48.0238 13.2079 47.8949ZM13.7232 50.9223L16.0421 51.6309L16.1065 51.9529L16.6862 53.3056L16.8794 53.6276L15.72 55.7532L17.0082 57.0415L19.1338 55.8821L19.4559 56.0753C19.9068 56.3329 20.3577 56.5262 20.8086 56.655L21.1306 56.7194L21.8392 59.0383H23.6427L24.3512 56.7194L24.6733 56.655L26.0259 56.0753L26.348 55.8821L28.4736 57.0415L29.7619 55.7532L28.6024 53.6276L28.7957 53.3056C29.0533 52.8547 29.2466 52.4038 29.3754 51.9529L29.4398 51.6309L31.7586 50.9223V49.1188L29.5686 48.4747L29.4398 48.1526C29.311 47.6373 29.1177 47.1864 28.8601 46.7355L28.6668 46.4135L29.7619 44.2879L28.4736 42.9996L26.4124 44.159L26.0904 43.9658C25.6395 43.7082 25.1886 43.5149 24.6733 43.3861L24.3512 43.2573L23.6427 41.0028H21.8392L21.1306 43.2573L20.8086 43.3861C20.3577 43.5149 19.9068 43.7082 19.4559 43.9658L19.1338 44.159L17.0082 42.9996L15.72 44.2879L16.8794 46.4135L16.6862 46.7355C16.4285 47.1864 16.2353 47.6373 16.1065 48.0882L16.0421 48.4102L13.7232 49.1188V50.9223Z" fill="#222222"/>
</svg>
