<svg width="59" height="60" viewBox="0 0 59 60" fill="none" xmlns="http://www.w3.org/2000/svg">
<path fill-rule="evenodd" clip-rule="evenodd" d="M38.2629 20.1263C38.2298 20.4403 38.1439 21.1673 38.0646 21.5639C37.9654 22.0596 35.4868 28.9997 29.8852 28.9997C24.2835 28.9997 21.3588 21.8613 21.3588 21.316V20.1263C21.0117 19.9941 20.2682 19.6207 20.0699 19.1844C19.822 18.6391 19.3759 17.6477 19.3263 16.2597L19.3239 16.1925C19.2752 14.8318 19.232 13.6227 19.5246 13.0375C19.7625 12.5616 19.9873 12.2113 20.0699 12.0956C20.0038 10.6415 19.9112 7.57463 20.0699 6.94011C20.2682 6.14696 20.7143 0 29.4886 0C36.508 0 36.4783 3.47005 36.4783 3.47005C36.4783 3.47005 38.6396 4.5309 38.9569 5.60166C39.3534 6.94011 39.5022 11.2033 39.5022 11.6495C39.5022 12.0064 39.5683 12.1617 39.6013 12.1948C39.8161 12.3104 40.2457 12.6607 40.2457 13.1366C40.2457 13.7315 40.2457 18.0443 39.75 18.7879C39.2543 19.5314 38.7586 20.1263 38.2629 20.1263ZM22.2511 9.17086V14.3759C22.2511 14.0289 21.5075 12.8392 21.1605 12.8392C20.8135 12.8392 20.5656 13.5828 20.4665 14.3759C20.3673 15.1691 21.0118 18.193 21.1605 18.6391C21.3092 19.0853 21.5075 18.8374 21.9536 18.9366C22.3105 19.0159 22.532 19.4984 22.5981 19.7297C22.6642 20.1098 22.7963 20.9591 22.7963 21.316C22.7963 21.7622 25.4237 27.7109 29.8852 27.7109C34.3467 27.7109 36.5774 21.663 36.6766 21.316C36.7757 20.969 36.8253 20.275 36.8748 19.7297C36.9244 19.1844 37.668 19.0357 38.2629 18.6391C38.8577 18.2426 38.9073 14.9708 38.9569 14.3759C39.0065 13.7811 38.7586 12.7896 38.2629 12.8392C37.8663 12.8789 37.5689 13.8802 37.4697 14.3759H37.1723C37.2219 13.1532 37.2913 10.4002 37.1723 9.17086C37.0236 7.63413 35.239 6.14696 33.7022 6.14696C32.1655 6.14696 31.1245 7.63412 29.4886 7.63412C27.8527 7.63412 27.704 6.29567 25.4237 6.14696C23.5994 6.02798 22.5485 8.11332 22.2511 9.17086Z" fill="#222222"/>
<path d="M32.4097 36.2625L30.3974 38.5885L32.361 47.86C32.4259 48.0336 32.4692 48.1555 32.4908 48.226C32.5125 48.2965 32.5152 48.3751 32.4989 48.4619C32.4827 48.5486 32.4367 48.63 32.361 48.7059L29.8294 51.7476C29.7212 51.8669 29.5833 51.9265 29.4156 51.9265C29.2479 51.9265 29.1046 51.8669 28.9856 51.7476L26.4702 48.7059C26.362 48.5649 26.3106 48.4483 26.3161 48.3562C26.3215 48.264 26.3729 48.0986 26.4702 47.86L28.4338 38.5722L26.4378 36.2625C26.2971 36.1324 26.262 35.9345 26.3323 35.6688C26.4026 35.4031 26.5568 35.2703 26.7948 35.2703H32.0689C32.3069 35.2703 32.4557 35.4031 32.5152 35.6688C32.5747 35.9345 32.5395 36.1324 32.4097 36.2625Z" fill="#222222"/>
<path d="M38.4362 30.1119C38.4362 30.1119 50.9038 34.4272 52.3705 35.0437C53.8373 35.6602 56.5264 50.4554 57.2598 54.7707C57.2598 58.1243 53.4299 58.2229 51.5149 57.8531H5.18929C4.21144 57.9353 2.20685 57.4339 2.01128 54.7707C1.76682 51.4418 5.55599 38.9891 7.38946 35.0437C11.6676 34.4272 17.4124 31.7148 20.5904 30.1119C20.9792 32.7002 21.2722 34.3993 21.5608 35.6622M38.4362 30.1119C38.4362 30.1119 38.403 32.8893 37.9732 35.6622L38.4362 30.1119Z" stroke="#222222" stroke-width="3"/>
</svg>
